<?xml version="1.0" encoding="UTF-8"?><svg id="Layer_1" xmlns="http://www.w3.org/2000/svg" viewBox="0 0 200 280"><path d="m100,1.04C45.81,1.04,1.73,45.12,1.73,99.3v120.3c0,32.73,26.63,59.36,59.36,59.36s59.36-26.63,59.36-59.36c0-11.05-8.95-20-20-20s-20,8.95-20,20-8.68,19.36-19.36,19.36-19.36-8.68-19.36-19.36v-120.3c0-32.13,26.14-58.27,58.27-58.27s58.27,26.14,58.27,58.27v119.34c0,11.05,8.95,20,20,20s20-8.95,20-20v-119.34C198.27,45.12,154.19,1.04,100,1.04Z" style="fill:#68bd45;"/><path d="m122.1,100.23c0-11.39-9.77-20.62-21.81-20.62s-21.81,9.23-21.81,20.62c0,5.16,2.01,9.88,5.33,13.5l4.04,5.41-6.87,42.83v1.92c0,2.15,1.85,3.91,4.12,3.91h29.87c2.27,0,4.12-1.76,4.12-3.91v-2.28l-6.22-42.47,3.93-5.45c3.3-3.61,5.3-8.32,5.3-13.46Z" style="fill:#68bd45;"/></svg>